<?xml version="1.0" encoding="utf-8"?>
<!-- Generator: Adobe Illustrator 24.0.3, SVG Export Plug-In . SVG Version: 6.00 Build 0)  -->
<svg version="1.1" id="레이어_1" xmlns="http://www.w3.org/2000/svg" xmlns:xlink="http://www.w3.org/1999/xlink" x="0px"
	 y="0px" viewBox="0 0 24 24" style="enable-background:new 0 0 24 24;" xml:space="preserve">
<style type="text/css">
	.st0{fill:#CA3172;}
</style>
<path class="st0" d="M18.7,19.6L13,13.9c-2.5,1.8-6,1.4-8.1-1C2.9,10.5,3,7,5.2,4.8c2.2-2.2,5.7-2.4,8.1-0.3c2.4,2,2.8,5.5,1,8.1
	l5.7,5.7L18.7,19.6L18.7,19.6z M9.5,5C7.6,5,6,6.3,5.6,8.2c-0.4,1.9,0.6,3.7,2.3,4.5c1.7,0.8,3.8,0.2,4.9-1.4c1.1-1.6,0.9-3.7-0.4-5
	L13,6.9l-0.7-0.7l0,0C11.6,5.4,10.5,5,9.5,5z"/>
</svg>
